<svg width="52" height="52" viewBox="0 0 52 52" fill="none" xmlns="http://www.w3.org/2000/svg">
<rect width="51.4521" height="51.4521" rx="10" transform="matrix(-1 0 0 1 51.4521 0)" fill="#69E065" fill-opacity="0.42"/>
<g clip-path="url(#clip0_5_185)">
<path d="M34.9761 17.7261H28.9761C28.5641 17.7261 27.9871 17.9651 27.6961 18.2561L20.2571 25.6951C20.1168 25.836 20.0381 26.0267 20.0381 26.2256C20.0381 26.4244 20.1168 26.6151 20.2571 26.7561L26.6961 33.1951C26.837 33.3353 27.0278 33.4141 27.2266 33.4141C27.4254 33.4141 27.6162 33.3353 27.7571 33.1951L35.1961 25.7561C35.4881 25.4641 35.7261 24.8881 35.7261 24.4761V18.4761C35.7256 18.2773 35.6464 18.0869 35.5058 17.9463C35.3653 17.8058 35.1749 17.7266 34.9761 17.7261V17.7261ZM31.2261 23.7261C31.0291 23.726 30.8339 23.6871 30.6519 23.6117C30.4699 23.5362 30.3045 23.4256 30.1652 23.2862C30.0259 23.1469 29.9155 22.9814 29.8401 22.7993C29.7648 22.6173 29.726 22.4221 29.7261 22.2251C29.7262 22.028 29.765 21.8329 29.8405 21.6509C29.916 21.4689 30.0266 21.3035 30.1659 21.1642C30.3053 21.0249 30.4708 20.9144 30.6528 20.8391C30.8349 20.7638 31.0301 20.725 31.2271 20.7251C31.6251 20.7252 32.0067 20.8834 32.288 21.1649C32.5693 21.4464 32.7272 21.8281 32.7271 22.2261C32.727 22.624 32.5688 23.0056 32.2873 23.2869C32.0058 23.5682 31.6241 23.7262 31.2261 23.7261Z" fill="black"/>
<path d="M17.7261 26.2261L26.2261 17.7261H24.9761C24.5641 17.7261 23.9871 17.9651 23.6961 18.2561L16.2571 25.6951C16.1168 25.836 16.0381 26.0267 16.0381 26.2256C16.0381 26.4244 16.1168 26.6151 16.2571 26.7561L22.6961 33.1951C22.837 33.3353 23.0278 33.4141 23.2266 33.4141C23.4254 33.4141 23.6162 33.3353 23.7571 33.1951L24.2271 32.7251L17.7271 26.2251L17.7261 26.2261Z" fill="black"/>
</g>
<defs>
<clipPath id="clip0_5_185">
<rect width="20" height="16" fill="white" transform="translate(15.7261 17.7261)"/>
</clipPath>
</defs>
</svg>
