<svg width="70" height="70" viewBox="0 0 70 70" fill="none" xmlns="http://www.w3.org/2000/svg">
<g filter="url(#filter0_d_5_202)">
<circle cx="34.8001" cy="21.7999" r="16.7999" fill="#FAE48C" fill-opacity="0.5"/>
<circle cx="34.8001" cy="21.7999" r="16.2999" stroke="url(#paint0_linear_5_202)" stroke-opacity="0.07"/>
</g>
<path d="M40.05 21.8C40.05 23.1924 39.4969 24.5277 38.5123 25.5123C37.5277 26.4969 36.1924 27.05 34.8 27.05C33.4076 27.05 32.0723 26.4969 31.0877 25.5123C30.1031 24.5277 29.55 23.1924 29.55 21.8C29.55 21.5008 29.5815 21.2085 29.6358 20.925H27.8V27.9198C27.8 28.4063 28.1938 28.8 28.6803 28.8H40.9215C41.1547 28.7995 41.3781 28.7066 41.5428 28.5416C41.7075 28.3765 41.8 28.1529 41.8 27.9198V20.925H39.9643C40.0185 21.2085 40.05 21.5008 40.05 21.8ZM34.8 25.3C35.2597 25.2999 35.715 25.2092 36.1397 25.0332C36.5644 24.8571 36.9502 24.5992 37.2752 24.274C37.6002 23.9488 37.858 23.5628 38.0339 23.138C38.2097 22.7133 38.3001 22.258 38.3 21.7983C38.2999 21.3385 38.2092 20.8833 38.0332 20.4586C37.8571 20.0339 37.5992 19.648 37.274 19.323C36.9488 18.998 36.5628 18.7402 36.138 18.5644C35.7133 18.3886 35.258 18.2981 34.7983 18.2983C33.8698 18.2985 32.9794 18.6675 32.323 19.3243C31.6666 19.981 31.298 20.8715 31.2983 21.8C31.2985 22.7285 31.6675 23.6189 32.3243 24.2752C32.981 24.9316 33.8715 25.3002 34.8 25.3ZM39 18.125H41.0983C41.2377 18.125 41.3714 18.0697 41.4701 17.9713C41.5688 17.8729 41.6245 17.7394 41.625 17.6V15.5018C41.625 15.362 41.5695 15.2281 41.4707 15.1293C41.3719 15.0305 41.238 14.975 41.0983 14.975H39C38.8603 14.975 38.7263 15.0305 38.6275 15.1293C38.5287 15.2281 38.4733 15.362 38.4733 15.5018V17.6C38.475 17.8888 38.7113 18.125 39 18.125ZM34.8 5C30.3444 5 26.0712 6.76999 22.9206 9.92061C19.77 13.0712 18 17.3444 18 21.8C18 26.2556 19.77 30.5288 22.9206 33.6794C26.0712 36.83 30.3444 38.6 34.8 38.6C37.0062 38.6 39.1908 38.1655 41.2291 37.3212C43.2674 36.4769 45.1194 35.2394 46.6794 33.6794C48.2394 32.1194 49.4769 30.2674 50.3212 28.2291C51.1655 26.1908 51.6 24.0062 51.6 21.8C51.6 19.5938 51.1655 17.4092 50.3212 15.3709C49.4769 13.3326 48.2394 11.4806 46.6794 9.92061C45.1194 8.36058 43.2674 7.1231 41.2291 6.27882C39.1908 5.43454 37.0062 5 34.8 5ZM43.55 28.6058C43.55 29.675 42.675 30.55 41.6058 30.55H27.9943C26.925 30.55 26.05 29.675 26.05 28.6058V14.9943C26.05 13.925 26.925 13.05 27.9943 13.05H41.6058C42.675 13.05 43.55 13.925 43.55 14.9943V28.6058Z" fill="url(#paint1_linear_5_202)"/>
<path d="M34.7998 5.5C36.9404 5.5 39.0605 5.92206 41.0381 6.74121C43.0155 7.56036 44.8127 8.76093 46.3262 10.2744C47.8396 11.7879 49.0403 13.585 49.8594 15.5625C50.6784 17.54 51.0996 19.6594 51.0996 21.7998C51.0996 23.9404 50.6785 26.0605 49.8594 28.0381C49.0402 30.0156 47.8397 31.8126 46.3262 33.3262C44.8126 34.8397 43.0156 36.0402 41.0381 36.8594C39.0605 37.6785 36.9404 38.0996 34.7998 38.0996C30.477 38.0996 26.3312 36.3828 23.2744 33.3262C20.2176 30.2693 18.5 26.1228 18.5 21.7998C18.5001 17.4768 20.2176 13.3312 23.2744 10.2744C26.3312 7.21762 30.4768 5.50005 34.7998 5.5ZM27.9941 12.5498C26.6488 12.5499 25.5499 13.6488 25.5498 14.9941V28.6055C25.5498 29.9508 26.6488 31.0497 27.9941 31.0498H41.6055C42.9509 31.0498 44.0498 29.9509 44.0498 28.6055V14.9941C44.0497 13.6488 42.9508 12.5498 41.6055 12.5498H27.9941ZM29.0664 21.4248C29.0569 21.5482 29.0498 21.6732 29.0498 21.7998C29.0498 23.3248 29.656 24.7879 30.7344 25.8662C31.8126 26.9443 33.275 27.5498 34.7998 27.5498C36.3248 27.5498 37.7879 26.9445 38.8662 25.8662C39.9445 24.7879 40.5498 23.3248 40.5498 21.7998C40.5498 21.6732 40.5437 21.5482 40.5342 21.4248H41.2998V27.9199C41.2998 28.0206 41.2596 28.1172 41.1885 28.1885C41.1174 28.2595 41.0214 28.2995 40.9209 28.2998H28.6807C28.4704 28.2998 28.2999 28.1302 28.2998 27.9199V21.4248H29.0664ZM34.7988 18.7979C35.1928 18.7978 35.5833 18.8757 35.9473 19.0264C36.3112 19.1771 36.6423 19.3983 36.9209 19.6768C37.1995 19.9553 37.4204 20.2864 37.5713 20.6504C37.7221 21.0144 37.7997 21.4049 37.7998 21.7988C37.7998 22.1928 37.7229 22.5833 37.5723 22.9473C37.4216 23.3113 37.2004 23.6422 36.9219 23.9209C36.6433 24.1996 36.3123 24.4204 35.9482 24.5713C35.5842 24.7222 35.1939 24.7997 34.7998 24.7998C34.004 24.8 33.2406 24.4844 32.6777 23.9219C32.1148 23.3592 31.7981 22.5957 31.7979 21.7998C31.7977 21.0039 32.1141 20.2406 32.6768 19.6777C33.2394 19.1148 34.003 18.7981 34.7988 18.7979ZM39 15.4746H41.0986C41.1055 15.4747 41.1123 15.4776 41.1172 15.4824C41.1222 15.4874 41.125 15.4949 41.125 15.502V17.5996C41.1247 17.6062 41.1219 17.6125 41.1172 17.6172C41.1123 17.6221 41.1056 17.6249 41.0986 17.625H39C38.9949 17.625 38.9888 17.6234 38.9824 17.6172L38.9736 17.5967V15.502C38.9736 15.4949 38.9764 15.4874 38.9814 15.4824C38.9864 15.4776 38.9931 15.4746 39 15.4746Z" stroke="url(#paint2_linear_5_202)" stroke-opacity="0.07"/>
<defs>
<filter id="filter0_d_5_202" x="0.00012207" y="0" width="69.5999" height="69.5999" filterUnits="userSpaceOnUse" color-interpolation-filters="sRGB">
<feFlood flood-opacity="0" result="BackgroundImageFix"/>
<feColorMatrix in="SourceAlpha" type="matrix" values="0 0 0 0 0 0 0 0 0 0 0 0 0 0 0 0 0 0 127 0" result="hardAlpha"/>
<feOffset dy="13"/>
<feGaussianBlur stdDeviation="9"/>
<feColorMatrix type="matrix" values="0 0 0 0 0.0658854 0 0 0 0 0.0730469 0 0 0 0 0.1375 0 0 0 0.08 0"/>
<feBlend mode="normal" in2="BackgroundImageFix" result="effect1_dropShadow_5_202"/>
<feBlend mode="normal" in="SourceGraphic" in2="effect1_dropShadow_5_202" result="shape"/>
</filter>
<linearGradient id="paint0_linear_5_202" x1="34.8001" y1="5" x2="34.8001" y2="38.5999" gradientUnits="userSpaceOnUse">
<stop offset="0.16" stop-color="#C42EFF"/>
<stop offset="0.29" stop-color="#FF00F0"/>
<stop offset="0.41" stop-color="#FF0A0E"/>
<stop offset="0.87" stop-color="#EFFF14"/>
</linearGradient>
<linearGradient id="paint1_linear_5_202" x1="34.8" y1="5" x2="35" y2="49" gradientUnits="userSpaceOnUse">
<stop offset="0.0961538" stop-color="#C42EFF"/>
<stop offset="0.206731" stop-color="#FF00F0"/>
<stop offset="0.3125" stop-color="#FF0A0E"/>
<stop offset="0.798077" stop-color="#EFFF14"/>
</linearGradient>
<linearGradient id="paint2_linear_5_202" x1="34.8" y1="5" x2="34.8" y2="38.6" gradientUnits="userSpaceOnUse">
<stop offset="0.16" stop-color="#C42EFF"/>
<stop offset="0.29" stop-color="#FF00F0"/>
<stop offset="0.41" stop-color="#FF0A0E"/>
<stop offset="0.87" stop-color="#EFFF14"/>
</linearGradient>
</defs>
</svg>
