<svg width="52" height="52" viewBox="0 0 52 52" fill="none" xmlns="http://www.w3.org/2000/svg">
<rect width="51.4521" height="51.4521" rx="10" transform="matrix(-1 0 0 1 51.4521 0)" fill="#69E065" fill-opacity="0.42"/>
<path d="M27.4765 40.666C29.1864 39.1899 30.7714 37.5717 32.2148 35.8283C34.3808 33.2101 36.953 29.3109 36.953 25.5953C36.9539 23.6977 36.3986 21.8424 35.3573 20.2644C34.316 18.6863 32.8355 17.4563 31.1032 16.7301C29.3709 16.0039 27.4647 15.8141 25.6257 16.1847C23.7868 16.5553 22.0978 17.4697 20.7726 18.8121C19.8902 19.701 19.1909 20.7583 18.715 21.9226C18.2391 23.087 17.9961 24.3353 18 25.5953C18 29.3109 20.5722 33.2101 22.7383 35.8283C24.1817 37.5717 25.7666 39.1899 27.4765 40.666ZM27.4765 21.4851C28.5537 21.4851 29.5867 21.9181 30.3483 22.6889C31.11 23.4597 31.5379 24.5052 31.5379 25.5953C31.5379 26.6854 31.11 27.7308 30.3483 28.5016C29.5867 29.2724 28.5537 29.7055 27.4765 29.7055C26.3994 29.7055 25.3664 29.2724 24.6047 28.5016C23.8431 27.7308 23.4152 26.6854 23.4152 25.5953C23.4152 24.5052 23.8431 23.4597 24.6047 22.6889C25.3664 21.9181 26.3994 21.4851 27.4765 21.4851Z" fill="black"/>
</svg>
