<svg width="52" height="52" viewBox="0 0 52 52" fill="none" xmlns="http://www.w3.org/2000/svg">
<rect width="51.4521" height="51.4521" rx="10" transform="matrix(-1 0 0 1 51.4521 0)" fill="#69E065" fill-opacity="0.42"/>
<g clip-path="url(#clip0_5_179)">
<path d="M21.0673 14.5325L22.3226 14.1311C23.4998 13.7555 24.7575 14.3633 25.2615 15.551L26.2648 17.917C26.7011 18.9471 26.4585 20.1593 25.6651 20.913L23.4543 23.0106C23.5908 24.266 24.0131 25.5015 24.7201 26.7171C25.3915 27.8933 26.2921 28.9228 27.3685 29.7446L30.0238 28.858C31.0295 28.5231 32.1261 28.9093 32.7421 29.8158L34.1806 31.9275C34.8981 32.9821 34.7686 34.4358 33.8785 35.3295L32.9253 36.2873C31.9756 37.2405 30.6188 37.587 29.3646 37.195C26.4013 36.271 23.6795 33.5281 21.1945 28.9665C18.706 24.3978 17.8275 20.5198 18.5601 17.3371C18.8681 15.9978 19.8213 14.9303 21.0673 14.5325Z" fill="black"/>
</g>
<defs>
<clipPath id="clip0_5_179">
<rect width="28" height="28" fill="white" transform="translate(12 11.687)"/>
</clipPath>
</defs>
</svg>
